<?xml version="1.0" encoding="UTF-8" standalone="no"?>
<svg xmlns:svg="http://www.w3.org/2000/svg" xmlns="http://www.w3.org/2000/svg" version="1.1"
    width="76" height="18" viewBox="0 0 76 18">
    <path d="M 20.8,8.9999998 C 20.8,12.978 24.022,16.2 28,16.2 c 3.978,0 7.2,-3.222 7.2,-7.2000002 0,-3.978 -3.222,-7.2 -7.2,-7.2 -3.978,0 -7.2,3.222 -7.2,7.2 z M 28,15.3 V 2.6999998 c 3.483,0 6.3,2.817 6.3,6.3 C 34.3,12.483 31.483,15.3 28,15.3 z" />
    <path d="m 8.9910417,13.95 c -3.9690049,0 -7.1910049,-4.7790002 -7.1910049,-4.9410002 0,-0.18 3.222,-4.959 7.1910049,-4.959 3.9869993,0 7.2629993,4.986 7.2089993,4.959 C 16.146042,8.9639998 12.978042,13.95 8.9910417,13.95 z m -0.027,-8.3160002 c -1.6830004,0 -3.0420049,1.467 -3.0420049,3.294 0,1.8090002 1.3590045,3.2850002 3.0420049,3.2850002 1.6920003,0 3.0600003,-1.476 3.0600003,-3.2850002 0,-1.827 -1.368,-3.294 -3.0600003,-3.294 z m -0.009,4.7340002 c -0.801,0 -1.4490004,-0.7020002 -1.4490004,-1.5570002 0,-0.855 0.6480004,-1.548 1.4490004,-1.548 0.8010001,0 1.4400003,0.693 1.4400003,1.548 0,0.855 -0.6390002,1.5570002 -1.4400003,1.5570002 z" />
    <path d="M 39.8,8.9999998 C 39.8,12.978 43.022,16.2 47,16.2 c 3.978,0 7.2,-3.222 7.2,-7.2000002 0,-3.978 -3.222,-7.2 -7.2,-7.2 -3.978,0 -7.2,3.222 -7.2,7.2 z" />
    <path d="M 58.8,8.9999998 C 58.8,12.978 62.022,16.2 66.000001,16.2 c 3.978,0 7.2,-3.222 7.2,-7.2000002 0,-3.978 -3.222,-7.2 -7.2,-7.2 -3.978,0 -7.2,3.222 -7.2,7.2 z M 66.000001,15.3 c -3.463092,0 -6.3,-2.78784 -6.3,-6.3000002 0,-3.505401 2.808108,-6.3 6.3,-6.3 3.451101,0 6.3,2.817 6.3,6.3 0,3.4830002 -2.774325,6.3000002 -6.3,6.3000002 z" />
</svg>
